<?xml version="1.0" encoding="UTF-8" standalone="no"?>
<svg
   xmlns:dc="http://purl.org/dc/elements/1.1/"
   xmlns:cc="http://creativecommons.org/ns#"
   xmlns:rdf="http://www.w3.org/1999/02/22-rdf-syntax-ns#"
   xmlns:svg="http://www.w3.org/2000/svg"
   xmlns="http://www.w3.org/2000/svg"
   xmlns:sodipodi="http://sodipodi.sourceforge.net/DTD/sodipodi-0.dtd"
   xmlns:inkscape="http://www.inkscape.org/namespaces/inkscape"
   width="32"
   height="32"
   fill="currentColor"
   viewBox="0 0 32 32"
   version="1.1"
   id="svg4"
   sodipodi:docname="cookie-bite-solid_blue.svg"
   inkscape:version="1.0.2 (e86c870879, 2021-01-15)">
  <metadata
     id="metadata10">
    <rdf:RDF>
      <cc:Work
         rdf:about="">
        <dc:format>image/svg+xml</dc:format>
        <dc:type
           rdf:resource="http://purl.org/dc/dcmitype/StillImage" />
        <dc:title></dc:title>
      </cc:Work>
    </rdf:RDF>
  </metadata>
  <defs
     id="defs8" />
  <sodipodi:namedview
     pagecolor="#ffffff"
     bordercolor="#666666"
     borderopacity="1"
     objecttolerance="10"
     gridtolerance="10"
     guidetolerance="10"
     inkscape:pageopacity="0"
     inkscape:pageshadow="2"
     inkscape:window-width="1920"
     inkscape:window-height="1163"
     id="namedview6"
     showgrid="false"
     inkscape:zoom="15.640625"
     inkscape:cx="-4.8756377"
     inkscape:cy="22.247842"
     inkscape:window-x="1200"
     inkscape:window-y="0"
     inkscape:window-maximized="1"
     inkscape:current-layer="svg4"
     inkscape:document-rotation="0" />
  <path
     style="fill:#31659c;fill-opacity:1;stroke:none;stroke-width:0.7;stroke-miterlimit:4;stroke-dasharray:none;stroke-opacity:1"
     d="M 16,4 C 9.371094,4 4,9.371094 4,16 4,22.628906 9.371094,28 16,28 22.628906,28 28,22.628906 28,16 28,15.515625 27.964844,15.039063 27.90625,14.566406 27.507813,14.839844 27.023438,15 26.5,15 25.421875,15 24.511719,14.3125 24.160156,13.359375 23.535156,13.757813 22.796875,14 22,14 19.789063,14 18,12.210938 18,10 18,9.265625 18.210938,8.585938 18.558594,7.992188 18.539063,7.996094 18.519531,8 18.5,8 17.117188,8 16,6.882813 16,5.5 16,4.941406 16.1875,4.433594 16.496094,4.019531 16.332031,4.011719 16.167969,4 16,4 Z"
     id="path2" />
  <path
     style="fill:#ffffff;fill-opacity:1;stroke:none;stroke-width:0.7;stroke-miterlimit:4;stroke-dasharray:none;stroke-opacity:1"
     d="M 19.5,20 C 18.671875,20 18,20.671875 18,21.5 18,22.328125 18.671875,23 19.5,23 20.328125,23 21,22.328125 21,21.5 21,20.671875 20.328125,20 19.5,20 Z"
     id="path856" />
  <path
     style="fill:#ffffff;fill-opacity:1;stroke:none;stroke-width:0.7;stroke-miterlimit:4;stroke-dasharray:none;stroke-opacity:1"
     d="M 12.5,19 C 11.671875,19 11,19.671875 11,20.5 11,21.328125 11.671875,22 12.5,22 13.328125,22 14,21.328125 14,20.5 14,19.671875 13.328125,19 12.5,19 Z"
     id="path854" />
  <path
     style="fill:#ffffff;fill-opacity:1;stroke:none;stroke-width:0.7;stroke-miterlimit:4;stroke-dasharray:none;stroke-opacity:1"
     d="m 16,15 c -0.550781,0 -1,0.449219 -1,1 0,0.550781 0.449219,1 1,1 0.550781,0 1,-0.449219 1,-1 0,-0.550781 -0.449219,-1 -1,-1 z"
     id="path852" />
  <path
     style="fill:#fbfdff;fill-opacity:1;stroke:none;stroke-width:0.7;stroke-miterlimit:4;stroke-dasharray:none;stroke-opacity:1"
     d="m 11,13 c -1.105469,0 -2,0.894531 -2,2 0,1.105469 0.894531,2 2,2 1.105469,0 2,-0.894531 2,-2 0,-1.105469 -0.894531,-2 -2,-2 z"
     id="path850" />
  <path
     style="fill:#31659c;fill-opacity:1;stroke:none;stroke-width:0.7;stroke-miterlimit:4;stroke-dasharray:none;stroke-opacity:1"
     d="m 27,10 c -0.550781,0 -1,0.449219 -1,1 0,0.550781 0.449219,1 1,1 0.550781,0 1,-0.449219 1,-1 0,-0.550781 -0.449219,-1 -1,-1 z"
     id="path848" />
  <path
     style="fill:#ffffff;fill-opacity:1;stroke:none;stroke-width:0.7;stroke-miterlimit:4;stroke-dasharray:none;stroke-opacity:1"
     d="m 14,10 c -0.550781,0 -1,0.449219 -1,1 0,0.550781 0.449219,1 1,1 0.550781,0 1,-0.449219 1,-1 0,-0.550781 -0.449219,-1 -1,-1 z"
     id="path846" />
  <path
     style="fill:#31659c;fill-opacity:1;stroke:none;stroke-width:0.7;stroke-miterlimit:4;stroke-dasharray:none;stroke-opacity:1"
     d="m 22,9 c -0.550781,0 -1,0.449219 -1,1 0,0.550781 0.449219,1 1,1 0.550781,0 1,-0.449219 1,-1 0,-0.550781 -0.449219,-1 -1,-1 z"
     id="path844" />
  <path
     style="fill:#31659c;fill-opacity:1;stroke:none;stroke-width:0.7;stroke-miterlimit:4;stroke-dasharray:none;stroke-opacity:1"
     d="m 4.9705217,19.292247 c -3.3136811,-12.861498 -1.6568406,-6.430749 0,0 z"
     id="path842" />
  <path
     style="fill:#31659c;fill-opacity:1;stroke:none;stroke-width:0.7;stroke-miterlimit:4;stroke-dasharray:none;stroke-opacity:1"
     d="M 23.5,4 C 22.671875,4 22,4.671875 22,5.5 22,6.328125 22.671875,7 23.5,7 24.328125,7 25,6.328125 25,5.5 25,4.671875 24.328125,4 23.5,4 Z"
     id="path840" />
</svg>
